<svg width="643" height="92" viewBox="0 0 643 92" fill="none" xmlns="http://www.w3.org/2000/svg">
<path fill-rule="evenodd" clip-rule="evenodd" d="M343.6 0.677734C318.1 0.677734 298.8 20.1777 298.8 46.1777C298.8 71.9777 318 91.4777 343.6 91.4777C369 91.4777 388.2 71.9777 388.2 46.1777C388.3 20.2777 369.1 0.677734 343.6 0.677734ZM343.8 77.8777C326.7 77.8777 313.2 63.8777 313.2 46.0777C313.2 28.1777 326.6 14.1777 343.8 14.1777C360.8 14.1777 374 28.1777 374 46.0777C374 63.9777 360.7 77.8777 343.8 77.8777ZM122.4 71.3779H162.5L168.4 86.7779H183.4L151.6 5.37793H134L102.1 86.7779H116.5L122.4 71.3779ZM127.5 58.1779L141.8 20.2779H143L157.4 58.4779H127.4L127.5 58.1779ZM477.699 86.7779V5.37793H463.399V64.6779H462.199L417.199 5.37793H402.399V86.7779H416.699V27.5779H417.899L462.999 86.7779H477.699ZM529.699 5.37793H494.399V86.7779H530.699C554.299 86.7779 569.499 70.5779 569.499 45.5779C569.399 20.3779 554.599 5.37793 529.699 5.37793ZM528.699 74.4779H508.699V17.6779H525.499C544.799 17.6779 554.699 27.3779 554.699 46.3779C554.599 70.8779 538.399 74.4779 528.699 74.4779ZM636.599 38.9779V51.9779H596.199V74.3779H642.699V86.7779H581.899V5.37793H642.699V17.6779H596.199V38.9779H636.599ZM284.7 5.47754V86.8776H270.5V27.3776H269.2L245 71.5775H235.5L211.3 27.3776H210.1V86.8776H195.8V5.47754H214L239.9 52.3776H240.7L266.5 5.47754H284.7ZM89.5992 5.47754V86.8776H75.2992V27.3776H74.0992L49.8992 71.5775H40.3992L16.0992 27.3776H14.9992V86.8776H0.699219V5.47754H18.8992L44.6992 52.3776H45.4992L71.2992 5.47754H89.5992Z" fill="black"/>
</svg>
